<svg xmlns="http://www.w3.org/2000/svg" width="789.8470458984375" height="352.3780822753906" viewBox="-543.286376953125 -246.82522583007812 789.8470458984375 352.3780822753906"><title>Neo4j Graph Visualization</title><desc>Created using Neo4j (http://www.neo4j.com/)</desc><g class="layer relationships"><g class="relationship" transform="translate(217.56066339960148 -98.7762276664476) rotate(204.71899335356682)"><path class="outline" fill="#A5ABB6" stroke="none" d="M 25 0.5 L 89.02140944058766 0.5 L 89.02140944058766 -0.5 L 25 -0.5 Z M 175.05265944058766 0.5 L 239.07406888117532 0.5 L 239.07406888117532 3.5 L 246.07406888117532 0 L 239.07406888117532 -3.5 L 239.07406888117532 -0.5 L 175.05265944058766 -0.5 Z"/><text text-anchor="middle" pointer-events="none" font-size="8px" fill="#000000" x="132.03703444058766" y="3" transform="rotate(180 132.03703444058766 0)" font-family="sans-serif">HA_PEDALEADO_EN</text></g><g class="relationship" transform="translate(85.74495795406597 -217.05493718729738) rotate(401.90174368107944)"><path class="outline" fill="#A5ABB6" stroke="none" d="M 25 0.5 L 75.60389660342835 0.5 L 75.60389660342835 -0.5 L 25 -0.5 Z M 94.49842785342835 0.5 L 145.1023244568567 0.5 L 145.1023244568567 3.5 L 152.1023244568567 0 L 145.1023244568567 -3.5 L 145.1023244568567 -0.5 L 94.49842785342835 -0.5 Z"/><text text-anchor="middle" pointer-events="none" font-size="8px" fill="#000000" x="85.05116222842835" y="3" font-family="sans-serif">VÍA</text></g><g class="relationship" transform="translate(-294.15696865152586 -80.16965892392444) rotate(297.8059187543635)"><path class="outline" fill="#A5ABB6" stroke="none" d="M 25 0.5 L 31.296956493091983 0.5 L 31.296956493091983 -0.5 L 25 -0.5 Z M 117.32820649309198 0.5 L 123.62516298618397 0.5 L 123.62516298618397 3.5 L 130.62516298618397 0 L 123.62516298618397 -3.5 L 123.62516298618397 -0.5 L 117.32820649309198 -0.5 Z"/><text text-anchor="middle" pointer-events="none" font-size="8px" fill="#000000" x="74.31258149309198" y="3" font-family="sans-serif">HA_PEDALEADO_EN</text></g><g class="relationship" transform="translate(-294.15696865152586 -80.16965892392444) rotate(422.22354070514086)"><path class="outline" fill="#A5ABB6" stroke="none" d="M 25 0.5 L 42.05093735646912 0.5 L 42.05093735646912 -0.5 L 25 -0.5 Z M 128.08218735646912 0.5 L 145.13312471293824 0.5 L 145.13312471293824 3.5 L 152.13312471293824 0 L 145.13312471293824 -3.5 L 145.13312471293824 -0.5 L 128.08218735646912 -0.5 Z"/><text text-anchor="middle" pointer-events="none" font-size="8px" fill="#000000" x="85.06656235646912" y="3" font-family="sans-serif">HA_PEDALEADO_EN</text></g><g class="relationship" transform="translate(-514.2863939355842 -91.07932725860314) rotate(360.01869034150565)"><path class="outline" fill="#A5ABB6" stroke="none" d="M 25 0.5 L 50.539949705877135 0.5 L 50.539949705877135 -0.5 L 25 -0.5 Z M 69.43448095587713 0.5 L 94.97443066175427 0.5 L 94.97443066175427 3.5 L 101.97443066175427 0 L 94.97443066175427 -3.5 L 94.97443066175427 -0.5 L 69.43448095587713 -0.5 Z"/><text text-anchor="middle" pointer-events="none" font-size="8px" fill="#000000" x="59.987215330877135" y="3" font-family="sans-serif">VÍA</text></g><g class="relationship" transform="translate(-1.7769893898886266 65.90068038918969) rotate(332.6195057170014)"><path class="outline" fill="#A5ABB6" stroke="none" d="M 25 0.5 L 86.37179541309814 0.5 L 86.37179541309814 -0.5 L 25 -0.5 Z M 105.26632666309814 0.5 L 166.63812207619628 0.5 L 166.63812207619628 3.5 L 173.63812207619628 0 L 166.63812207619628 -3.5 L 166.63812207619628 -0.5 L 105.26632666309814 -0.5 Z"/><text text-anchor="middle" pointer-events="none" font-size="8px" fill="#000000" x="95.81906103809814" y="3" font-family="sans-serif">VÍA</text></g><g class="relationship" transform="translate(-135.06333589247447 -81.8436308323537) rotate(309.23403647942047)"><path class="outline" fill="#A5ABB6" stroke="none" d="M 25 0.5 L 37.58738888816286 0.5 L 37.58738888816286 -0.5 L 25 -0.5 Z M 123.61863888816286 0.5 L 136.20602777632573 0.5 L 136.20602777632573 3.5 L 143.20602777632573 0 L 136.20602777632573 -3.5 L 136.20602777632573 -0.5 L 123.61863888816286 -0.5 Z"/><text text-anchor="middle" pointer-events="none" font-size="8px" fill="#000000" x="80.60301388816286" y="3" font-family="sans-serif">HA_PEDALEADO_EN</text></g><g class="relationship" transform="translate(174.60810186791082 -25.452497573788804) rotate(222.56181171402727)"><path class="outline" fill="#A5ABB6" stroke="none" d="M 25 0.5 L 91.4813993479523 0.5 L 91.4813993479523 -0.5 L 25 -0.5 Z M 177.5126493479523 0.5 L 243.9940486959046 0.5 L 243.9940486959046 3.5 L 250.9940486959046 0 L 243.9940486959046 -3.5 L 243.9940486959046 -0.5 L 177.5126493479523 -0.5 Z"/><text text-anchor="middle" pointer-events="none" font-size="8px" fill="#000000" x="134.4970243479523" y="3" transform="rotate(180 134.4970243479523 0)" font-family="sans-serif">HA_PEDALEADO_EN</text></g><g class="relationship" transform="translate(-5.201497230216944 -56.167918313710544) rotate(261.44090546671913)"><path class="outline" fill="#A5ABB6" stroke="none" d="M 25 0.5 L 32.34407925592319 0.5 L 32.34407925592319 -0.5 L 25 -0.5 Z M 118.37532925592319 0.5 L 125.71940851184638 0.5 L 125.71940851184638 3.5 L 132.71940851184638 0 L 125.71940851184638 -3.5 L 125.71940851184638 -0.5 L 118.37532925592319 -0.5 Z"/><text text-anchor="middle" pointer-events="none" font-size="8px" fill="#000000" x="75.35970425592319" y="3" transform="rotate(180 75.35970425592319 0)" font-family="sans-serif">HA_PEDALEADO_EN</text></g><g class="relationship" transform="translate(-387.3119700296097 -91.03790718456568) rotate(322.58662561851673)"><path class="outline" fill="#A5ABB6" stroke="none" d="M 25 0.5 L 57.82554994991463 0.5 L 57.82554994991463 -0.5 L 25 -0.5 Z M 143.85679994991463 0.5 L 176.68234989982926 0.5 L 176.68234989982926 3.5 L 183.68234989982926 0 L 176.68234989982926 -3.5 L 176.68234989982926 -0.5 L 143.85679994991463 -0.5 Z"/><text text-anchor="middle" pointer-events="none" font-size="8px" fill="#000000" x="100.84117494991463" y="3" font-family="sans-serif">HA_PEDALEADO_EN</text></g><g class="relationship" transform="translate(-135.06333589247447 -81.8436308323537) rotate(237.53955219883795)"><path class="outline" fill="#A5ABB6" stroke="none" d="M 25 0.5 L 34.06489628690257 0.5 L 34.06489628690257 -0.5 L 25 -0.5 Z M 120.09614628690257 0.5 L 129.16104257380513 0.5 L 129.16104257380513 3.5 L 136.16104257380513 0 L 129.16104257380513 -3.5 L 129.16104257380513 -0.5 L 120.09614628690257 -0.5 Z"/><text text-anchor="middle" pointer-events="none" font-size="8px" fill="#000000" x="77.08052128690257" y="3" transform="rotate(180 77.08052128690257 0)" font-family="sans-serif">HA_PEDALEADO_EN</text></g><g class="relationship" transform="translate(-5.201497230216944 -56.167918313710544) rotate(507.25881246481276)"><path class="outline" fill="#A5ABB6" stroke="none" d="M 25 0.5 L 76.18196336113013 0.5 L 76.18196336113013 -0.5 L 25 -0.5 Z M 162.21321336113013 0.5 L 213.39517672226026 0.5 L 213.39517672226026 3.5 L 220.39517672226026 0 L 213.39517672226026 -3.5 L 213.39517672226026 -0.5 L 162.21321336113013 -0.5 Z"/><text text-anchor="middle" pointer-events="none" font-size="8px" fill="#000000" x="119.19758836113013" y="3" transform="rotate(180 119.19758836113013 0)" font-family="sans-serif">HA_PEDALEADO_EN</text></g><g class="relationship" transform="translate(-135.06333589247447 -81.8436308323537) rotate(475.79226995478274)"><path class="outline" fill="#A5ABB6" stroke="none" d="M 25 0.5 L 41.445533742490866 0.5 L 41.445533742490866 -0.5 L 25 -0.5 Z M 127.47678374249087 0.5 L 143.92231748498173 0.5 L 143.92231748498173 3.5 L 150.92231748498173 0 L 143.92231748498173 -3.5 L 143.92231748498173 -0.5 L 127.47678374249087 -0.5 Z"/><text text-anchor="middle" pointer-events="none" font-size="8px" fill="#000000" x="84.46115874249087" y="3" transform="rotate(180 84.46115874249087 0)" font-family="sans-serif">HA_PEDALEADO_EN</text></g><g class="relationship" transform="translate(-387.3119700296097 -91.03790718456568) rotate(403.6462967459401)"><path class="outline" fill="#A5ABB6" stroke="none" d="M 25 0.5 L 74.89098459561734 0.5 L 74.89098459561734 -0.5 L 25 -0.5 Z M 160.92223459561734 0.5 L 210.81321919123468 0.5 L 210.81321919123468 3.5 L 217.81321919123468 0 L 210.81321919123468 -3.5 L 210.81321919123468 -0.5 L 160.92223459561734 -0.5 Z"/><text text-anchor="middle" pointer-events="none" font-size="8px" fill="#000000" x="117.90660959561734" y="3" font-family="sans-serif">HA_PEDALEADO_EN</text></g><g class="relationship" transform="translate(174.60810186791082 -25.452497573788804) rotate(525.2052079200741)"><path class="outline" fill="#A5ABB6" stroke="none" d="M 25 0.5 L 153.2145755836368 0.5 L 153.2145755836368 -0.5 L 25 -0.5 Z M 239.2458255836368 0.5 L 367.4604011672736 0.5 L 367.4604011672736 3.5 L 374.4604011672736 0 L 367.4604011672736 -3.5 L 367.4604011672736 -0.5 L 239.2458255836368 -0.5 Z"/><text text-anchor="middle" pointer-events="none" font-size="8px" fill="#000000" x="196.2302005836368" y="3" transform="rotate(180 196.2302005836368 0)" font-family="sans-serif">HA_PEDALEADO_EN</text></g></g><g class="layer nodes"><g class="node" transform="translate(217.56066339960148,-98.7762276664476)"><circle class="outline" cx="0" cy="0" r="25" fill="#68BDF6" stroke="#5CA8DB" stroke-width="2px"/><text text-anchor="middle" pointer-events="none" y="5" font-size="10px" fill="#FFFFFF" font-family="sans-serif"> 593</text></g><g class="node" transform="translate(-294.15696865152586,-80.16965892392444)"><circle class="outline" cx="0" cy="0" r="25" fill="#68BDF6" stroke="#5CA8DB" stroke-width="2px"/><text text-anchor="middle" pointer-events="none" y="5" font-size="10px" fill="#FFFFFF" font-family="sans-serif"> 592</text></g><g class="node" transform="translate(-514.2863939355842,-91.07932725860314)"><circle class="outline" cx="0" cy="0" r="25" fill="#FB95AF" stroke="#E0849B" stroke-width="2px"/><text text-anchor="middle" pointer-events="none" y="5" font-size="10px" fill="#FFFFFF" font-family="sans-serif"> 582</text></g><g class="node" transform="translate(-1.7769893898886266,65.90068038918969)"><circle class="outline" cx="0" cy="0" r="25" fill="#FB95AF" stroke="#E0849B" stroke-width="2px"/><text text-anchor="middle" pointer-events="none" y="5" font-size="10px" fill="#FFFFFF" font-family="sans-serif"> 583</text></g><g class="node" transform="translate(85.74495795406597,-217.05493718729738)"><circle class="outline" cx="0" cy="0" r="25" fill="#FB95AF" stroke="#E0849B" stroke-width="2px"/><text text-anchor="middle" pointer-events="none" y="5" font-size="10px" fill="#FFFFFF" font-family="sans-serif"> 584</text></g><g class="node" transform="translate(-28.674781778137117,-212.130788041922)"><circle class="outline" cx="0" cy="0" r="25" fill="#6DCE9E" stroke="#60B58B" stroke-width="2px"/><text text-anchor="middle" pointer-events="none" y="5" font-size="10px" fill="#FFFFFF" font-family="sans-serif"> 585</text></g><g class="node" transform="translate(-221.56125128632357,-217.8252188360035)"><circle class="outline" cx="0" cy="0" r="25" fill="#6DCE9E" stroke="#60B58B" stroke-width="2px"/><text text-anchor="middle" pointer-events="none" y="5" font-size="10px" fill="#FFFFFF" font-family="sans-serif"> 586</text></g><g class="node" transform="translate(-211.60883021052703,76.55286246497815)"><circle class="outline" cx="0" cy="0" r="25" fill="#6DCE9E" stroke="#60B58B" stroke-width="2px"/><text text-anchor="middle" pointer-events="none" y="5" font-size="10px" fill="#FFFFFF" font-family="sans-serif"> 587</text></g><g class="node" transform="translate(-387.3119700296097,-91.03790718456568)"><circle class="outline" cx="0" cy="0" r="25" fill="#68BDF6" stroke="#5CA8DB" stroke-width="2px"/><text text-anchor="middle" pointer-events="none" y="5" font-size="10px" fill="#FFFFFF" font-family="sans-serif"> 588</text></g><g class="node selected" transform="translate(174.60810186791082,-25.452497573788804)"><circle class="outline" cx="0" cy="0" r="25" fill="#68BDF6" stroke="#5CA8DB" stroke-width="2px"/><text text-anchor="middle" pointer-events="none" y="5" font-size="10px" fill="#FFFFFF" font-family="sans-serif"> 589</text></g><g class="node" transform="translate(-5.201497230216944,-56.167918313710544)"><circle class="outline" cx="0" cy="0" r="25" fill="#68BDF6" stroke="#5CA8DB" stroke-width="2px"/><text text-anchor="middle" pointer-events="none" y="5" font-size="10px" fill="#FFFFFF" font-family="sans-serif"> 590</text></g><g class="node" transform="translate(-135.06333589247447,-81.8436308323537)"><circle class="outline" cx="0" cy="0" r="25" fill="#68BDF6" stroke="#5CA8DB" stroke-width="2px"/><text text-anchor="middle" pointer-events="none" y="5" font-size="10px" fill="#FFFFFF" font-family="sans-serif"> 591</text></g></g></svg>