<svg xmlns="http://www.w3.org/2000/svg" width="869.857666015625" height="331.58111572265625" viewBox="-285.7254333496094 -78.4659423828125 869.857666015625 331.58111572265625"><title>Neo4j Graph Visualization</title><desc>Created using Neo4j (http://www.neo4j.com/)</desc><g class="layer relationships"><g class="relationship" transform="translate(334.15438507207057 107.22541085112209) rotate(340.4166255808648)"><path class="outline" fill="#A5ABB6" stroke="none" d="M 40 0.5 L 62.796496817324766 0.5 L 62.796496817324766 -0.5 L 40 -0.5 Z M 148.82774681732477 0.5 L 171.62424363464953 0.5 L 171.62424363464953 3.5 L 178.62424363464953 0 L 171.62424363464953 -3.5 L 171.62424363464953 -0.5 L 148.82774681732477 -0.5 Z"/><text text-anchor="middle" pointer-events="none" font-size="8px" fill="#000000" x="105.81212181732477" y="3" font-family="sans-serif">HA_PEDALEADO_EN</text></g><g class="relationship" transform="translate(83.95945899946688 173.79669021210333) rotate(345.10009476926143)"><path class="outline" fill="#A5ABB6" stroke="none" d="M 40 0.5 L 116.50275974022873 0.5 L 116.50275974022873 -0.5 L 40 -0.5 Z M 135.39729099022873 0.5 L 211.90005073045745 0.5 L 211.90005073045745 3.5 L 218.90005073045745 0 L 211.90005073045745 -3.5 L 211.90005073045745 -0.5 L 135.39729099022873 -0.5 Z"/><text text-anchor="middle" pointer-events="none" font-size="8px" fill="#000000" x="125.95002536522873" y="3" font-family="sans-serif">VÍA</text></g><g class="relationship" transform="translate(332.446497983894 -28.906936239153396) rotate(376.8379777194985)"><path class="outline" fill="#A5ABB6" stroke="none" d="M 40 0.5 L 61.97865199630745 0.5 L 61.97865199630745 -0.5 L 40 -0.5 Z M 148.00990199630746 0.5 L 169.9885539926149 0.5 L 169.9885539926149 3.5 L 176.9885539926149 0 L 169.9885539926149 -3.5 L 169.9885539926149 -0.5 L 148.00990199630746 -0.5 Z"/><text text-anchor="middle" pointer-events="none" font-size="8px" fill="#000000" x="104.99427699630745" y="3" font-family="sans-serif">HA_PEDALEADO_EN</text></g><g class="relationship" transform="translate(-54.074109684907995 80.5265037296095) rotate(502.3482664033568)"><path class="outline" fill="#A5ABB6" stroke="none" d="M 40 0.5 L 58.73647892617714 0.5 L 58.73647892617714 -0.5 L 40 -0.5 Z M 144.76772892617714 0.5 L 163.50420785235428 0.5 L 163.50420785235428 3.5 L 170.50420785235428 0 L 163.50420785235428 -3.5 L 163.50420785235428 -0.5 L 144.76772892617714 -0.5 Z"/><text text-anchor="middle" pointer-events="none" font-size="8px" fill="#000000" x="101.75210392617714" y="3" transform="rotate(180 101.75210392617714 0)" font-family="sans-serif">HA_PEDALEADO_EN</text></g><g class="relationship" transform="translate(-54.074109684907995 80.5265037296095) rotate(356.96035632378744)"><path class="outline" fill="#A5ABB6" stroke="none" d="M 40 0.5 L 55.33498465236268 0.5 L 55.33498465236268 -0.5 L 40 -0.5 Z M 141.36623465236266 0.5 L 156.70121930472536 0.5 L 156.70121930472536 3.5 L 163.70121930472536 0 L 156.70121930472536 -3.5 L 156.70121930472536 -0.5 L 141.36623465236266 -0.5 Z"/><text text-anchor="middle" pointer-events="none" font-size="8px" fill="#000000" x="98.35060965236268" y="3" font-family="sans-serif">HA_PEDALEADO_EN</text></g><g class="relationship" transform="translate(-241.72543235362912 -16.480265924799482) rotate(387.3368039824121)"><path class="outline" fill="#A5ABB6" stroke="none" d="M 40 0.5 L 92.67391153434627 0.5 L 92.67391153434627 -0.5 L 40 -0.5 Z M 111.56844278434627 0.5 L 164.24235431869255 0.5 L 164.24235431869255 3.5 L 171.24235431869255 0 L 164.24235431869255 -3.5 L 164.24235431869255 -0.5 L 111.56844278434627 -0.5 Z"/><text text-anchor="middle" pointer-events="none" font-size="8px" fill="#000000" x="102.12117715934627" y="3" font-family="sans-serif">VÍA</text></g><g class="relationship" transform="translate(64.32581793299642 -34.46594500426483) rotate(361.1877566235098)"><path class="outline" fill="#A5ABB6" stroke="none" d="M 40 0.5 L 121.14188536176547 0.5 L 121.14188536176547 -0.5 L 40 -0.5 Z M 140.03641661176547 0.5 L 221.17830197353095 0.5 L 221.17830197353095 3.5 L 228.17830197353095 0 L 221.17830197353095 -3.5 L 221.17830197353095 -0.5 L 140.03641661176547 -0.5 Z"/><text text-anchor="middle" pointer-events="none" font-size="8px" fill="#000000" x="130.58915098676547" y="3" font-family="sans-serif">VÍA</text></g><g class="relationship" transform="translate(332.446497983894 -28.906936239153396) rotate(511.6904474001702)"><path class="outline" fill="#A5ABB6" stroke="none" d="M 40 0.5 L 57.474795624058075 0.5 L 57.474795624058075 -0.5 L 40 -0.5 Z M 143.50604562405806 0.5 L 160.98084124811615 0.5 L 160.98084124811615 3.5 L 167.98084124811615 0 L 160.98084124811615 -3.5 L 160.98084124811615 -0.5 L 143.50604562405806 -0.5 Z"/><text text-anchor="middle" pointer-events="none" font-size="8px" fill="#000000" x="100.49042062405807" y="3" transform="rotate(180 100.49042062405807 0)" font-family="sans-serif">HA_PEDALEADO_EN</text></g></g><g class="layer nodes"><g class="node" transform="translate(334.15438507207057,107.22541085112209)"><circle class="outline" cx="0" cy="0" r="40" fill="#68BDF6" stroke="#5CA8DB" stroke-width="2px"/><text text-anchor="middle" pointer-events="none" y="5" font-size="10px" fill="#FFFFFF" font-family="sans-serif">PAU</text></g><g class="node selected" transform="translate(83.95945899946688,173.79669021210333)"><circle class="outline" cx="0" cy="0" r="40" fill="#FB95AF" stroke="#E0849B" stroke-width="2px"/><text text-anchor="middle" pointer-events="none" y="5" font-size="10px" fill="#FFFFFF" font-family="sans-serif">ESTORNINOS</text></g><g class="node" transform="translate(540.1322550023601,33.94733088307629)"><circle class="outline" cx="0" cy="0" r="40" fill="#6DCE9E" stroke="#60B58B" stroke-width="2px"/><text text-anchor="middle" pointer-events="none" y="5" font-size="10px" fill="#FFFFFF" font-family="sans-serif">EDO</text></g><g class="node" transform="translate(-54.074109684907995,80.5265037296095)"><circle class="outline" cx="0" cy="0" r="40" fill="#68BDF6" stroke="#5CA8DB" stroke-width="2px"/><text text-anchor="middle" pointer-events="none" y="5" font-size="10px" fill="#FFFFFF" font-family="sans-serif">nando</text></g><g class="node" transform="translate(64.32581793299642,-34.46594500426483)"><circle class="outline" cx="0" cy="0" r="40" fill="#FB95AF" stroke="#E0849B" stroke-width="2px"/><text text-anchor="middle" pointer-events="none" y="5" font-size="10px" fill="#FFFFFF" font-family="sans-serif">EL FOSO</text></g><g class="node" transform="translate(332.446497983894,-28.906936239153396)"><circle class="outline" cx="0" cy="0" r="40" fill="#68BDF6" stroke="#5CA8DB" stroke-width="2px"/><text text-anchor="middle" pointer-events="none" y="5" font-size="10px" fill="#FFFFFF" font-family="sans-serif">Carlos</text></g><g class="node" transform="translate(-241.72543235362912,-16.480265924799482)"><circle class="outline" cx="0" cy="0" r="40" fill="#FB95AF" stroke="#E0849B" stroke-width="2px"/><text text-anchor="middle" pointer-events="none" y="5" font-size="10px" fill="#FFFFFF" font-family="sans-serif">EL EVENTO</text></g><g class="node" transform="translate(-220.73837592332075,209.1151652933673)"><circle class="outline" cx="0" cy="0" r="40" fill="#6DCE9E" stroke="#60B58B" stroke-width="2px"/><text text-anchor="middle" pointer-events="none" y="5" font-size="10px" fill="#FFFFFF" font-family="sans-serif">PRIMERITI</text></g><g class="node" transform="translate(149.340519074893,69.72485789463782)"><circle class="outline" cx="0" cy="0" r="40" fill="#6DCE9E" stroke="#60B58B" stroke-width="2px"/><text text-anchor="middle" pointer-events="none" y="5" font-size="10px" fill="#FFFFFF" font-family="sans-serif">REGALO</text></g></g></svg>
